<?xml version="1.0" standalone="no"?>
<!DOCTYPE svg PUBLIC "-//W3C//DTD SVG 20010904//EN"
 "http://www.w3.org/TR/2001/REC-SVG-20010904/DTD/svg10.dtd">
<svg version="1.0" xmlns="http://www.w3.org/2000/svg"
 width="459.000000pt" height="459.000000pt" viewBox="0 0 459.000000 459.000000"
 preserveAspectRatio="xMidYMid meet">
<metadata>
Created by potrace 1.14, written by Peter Selinger 2001-2017
</metadata>
<g transform="translate(0.000000,459.000000) scale(0.100000,-0.100000)"
fill="#000000" stroke="none">
<path d="M1552 4292 c-34 -183 -60 -629 -42 -715 5 -26 10 -65 10 -85 0 -38
36 -220 64 -322 83 -308 259 -655 448 -882 53 -64 53 -72 -2 -84 -14 -3 -33
-9 -42 -15 -10 -5 -23 -9 -29 -9 -12 0 -38 -11 -158 -68 -302 -141 -582 -444
-696 -753 -14 -41 -30 -83 -35 -94 -56 -138 -78 -413 -44 -535 52 -186 209
-328 414 -374 41 -10 102 -24 135 -32 33 -7 112 -25 175 -38 63 -13 169 -36
235 -51 66 -15 138 -31 160 -35 22 -4 94 -20 160 -35 164 -38 220 -42 233 -18
14 25 -2 60 -113 249 -48 82 -122 208 -163 279 -41 72 -94 162 -117 200 -66
109 -125 216 -125 226 0 8 45 22 111 34 34 6 40 2 130 -78 201 -179 260 -251
319 -393 40 -96 70 -249 71 -362 1 -99 14 -133 69 -169 42 -29 100 -30 149 -3
53 30 71 69 71 149 0 134 43 326 98 436 57 116 118 183 375 418 121 110 187
206 224 325 23 76 27 103 27 222 0 127 -13 215 -43 285 -47 110 -106 237 -113
241 -4 3 25 46 65 97 63 79 109 146 185 267 61 97 180 360 212 470 7 25 17 49
22 55 4 5 8 20 8 33 0 13 4 31 9 40 13 24 50 208 68 332 16 120 18 354 3 527
-10 111 -45 321 -55 332 -3 2 -24 -6 -48 -19 -52 -28 -253 -161 -287 -189 -14
-11 -30 -24 -35 -28 -97 -74 -257 -229 -359 -351 -38 -45 -72 -82 -75 -82 -4
0 -63 7 -131 17 -141 18 -490 22 -555 5 -22 -6 -70 -13 -106 -17 l-65 -6 -49
63 c-96 123 -287 308 -420 405 -124 91 -302 203 -322 203 -5 0 -14 -31 -21
-68z"/>
<path d="M511 3693 c8 -10 20 -22 27 -26 6 -4 12 -13 12 -18 0 -6 8 -23 18
-37 46 -69 74 -215 60 -317 -21 -157 -80 -361 -157 -550 -5 -11 -25 -58 -44
-105 -63 -151 -134 -334 -140 -360 -3 -14 -10 -43 -16 -65 -19 -69 -51 -324
-51 -404 0 -193 75 -498 164 -666 9 -16 16 -36 16 -42 0 -7 5 -13 10 -13 6 0
10 -4 10 -10 0 -12 55 -98 107 -166 76 -100 180 -206 268 -272 159 -119 178
-126 141 -54 -13 26 -36 83 -52 127 -25 74 -28 92 -28 235 0 129 4 167 22 230
55 194 81 255 272 655 56 116 120 280 149 380 26 86 51 246 51 320 0 73 -26
225 -52 300 -30 89 -113 239 -182 330 -86 114 -292 318 -411 407 -5 4 -23 18
-40 32 -55 43 -148 106 -158 106 -5 0 -3 -8 4 -17z"/>
</g>
</svg>
